<?xml version="1.0" encoding="UTF-8"?>
<!DOCTYPE svg PUBLIC "-//W3C//DTD SVG 1.1//EN" "http://www.w3.org/Graphics/SVG/1.1/DTD/svg11.dtd">
<!-- Creator: CorelDRAW 2018 (64-Bit Evaluation Version) -->
<svg xmlns="http://www.w3.org/2000/svg" xml:space="preserve" width="8.0432mm" height="8.4666mm" version="1.1" style="shape-rendering:geometricPrecision; text-rendering:geometricPrecision; image-rendering:optimizeQuality; fill-rule:evenodd; clip-rule:evenodd"
viewBox="0 0 804.32 846.66"
 xmlns:xlink="http://www.w3.org/1999/xlink">
 <defs>
  <style type="text/css">
   <![CDATA[
    .fil1 {fill:#434A53}
    .fil2 {fill:#72C2FF}
    .fil0 {fill:white}
   ]]>
  </style>
 </defs>
 <g id="Layer_x0020_1">
  <metadata id="CorelCorpID_0Corel-Layer"/>
  <g id="_1756267919744">
   <path class="fil0" d="M311.45 603.95c9.9,-2.29 228.59,-0.56 259.16,-0.68 47.48,-0.18 33.57,34.86 17.27,39.29 -13.39,3.64 -216.25,0.75 -259.74,0.93 -14.47,0.06 -27.07,-0.12 -31.36,-11.38 -5.47,-14.34 2.05,-25.25 14.67,-28.16zm0.1 -100.31c9.34,-2.14 228.85,-0.47 259.07,-0.6 47.63,-0.21 33.43,34.9 17.32,39.21 -13.61,3.64 -216.08,0.69 -259.8,0.87 -15.59,0.07 -26.87,0.08 -31.26,-11.54 -5.92,-15.68 2.6,-25.18 14.67,-27.94zm0.15 -100.3c9.68,-2.25 228.54,-0.55 258.92,-0.67 14.28,-0.06 26.03,0.63 30.58,12.33 5.03,12.95 -2.98,24.2 -13.21,26.95 -13.72,3.69 -216.08,0.75 -259.85,0.93 -15.58,0.06 -26.97,0 -31.29,-11.63 -5.88,-15.88 2.73,-25.1 14.85,-27.91z"/>
   <path class="fil0" d="M495.91 824.23c2.47,-26.78 29.53,-20.31 53.83,-20.31 25.57,0 49.77,-6.18 52.9,20.45l160.43 -0.57c2.84,-208.45 -0.35,-420.82 0.1,-630.19 0.11,-53.17 -25.59,-58.46 -67.61,-58.43l-505.65 -0.03c-55.1,0.04 -55.38,35.41 -55.37,71.75l0 507.51c0,20.74 0.39,41.86 -0.01,62.55 -0.47,24.49 -7.93,32.27 -17.37,47.93l0.54 0 45.46 -0.08 332.75 -0.58z"/>
   <path class="fil1" d="M117.7 824.89l-3.11 2.76 -1.14 0.01c-1.27,0.4 -32.53,30.31 -73.28,11.89 -20.3,-9.18 -37.32,-30.03 -38.6,-58.93 -2.81,-63.14 -0.11,-133 -0.11,-196.88l-0.02 -488.61c0.06,-32.83 10.07,-54.51 27.33,-70.27 21.23,-19.36 39.22,-23.44 75.95,-23.4l441.25 -0.05c18.46,-0.06 27.07,2.5 30.06,20.16 -4.44,27.77 -34.55,20.06 -62.27,20.06l-416.62 -0.03c-68.41,-0.17 -56.23,54.21 -56.23,112.27l0 585.16c0,25.41 -5.52,59.51 19.15,65.49 13.35,3.22 23.95,-3.4 29.38,-10.73 6.74,-9.11 5.02,-23.04 5,-35.82 -0.06,-62.09 -1.96,-564.47 0.79,-587.06 5.44,-44.61 41.63,-75.53 90.89,-75.75l335.22 0.02c54.89,0 113.85,2.05 168.24,-0.23 45.41,1.68 60.78,-0.42 88.39,25.74 22.9,21.71 25.31,50.2 25.31,89.99l0 575.69c0,13.48 7.91,68.06 -27.5,56.33 -8.39,-2.78 -11.22,-9.16 -12.71,-18.9 2.84,-208.45 -0.35,-420.82 0.1,-630.19 0.11,-53.17 -25.59,-58.46 -67.61,-58.43l-505.65 -0.03c-55.1,0.04 -55.38,35.41 -55.37,71.75l0 507.51c0,20.74 0.39,41.86 -0.01,62.55 -0.47,24.49 -7.93,32.27 -17.37,47.93l0.54 0z"/>
   <path class="fil0" d="M689.58 94.95l0 -53.12c-26.64,-0.92 -49.49,6.86 -53.53,-20.07l-60.02 -0.19c-4.44,27.77 -34.55,20.06 -62.27,20.06l-416.62 -0.03c-68.41,-0.17 -56.23,54.21 -56.23,112.27l0 585.16c0,25.41 -5.52,59.51 19.15,65.49 13.35,3.22 23.95,-3.4 29.38,-10.73 6.74,-9.11 5.02,-23.04 5,-35.82 -0.06,-62.09 -1.96,-564.47 0.79,-587.06 5.44,-44.61 41.63,-75.53 90.89,-75.75l335.22 0.02c54.89,0 113.85,2.05 168.24,-0.23z"/>
   <path class="fil2" d="M311.7 403.34c-12.12,2.81 -20.73,12.03 -14.85,27.91 4.32,11.63 15.71,11.69 31.29,11.63 43.77,-0.18 246.13,2.76 259.85,-0.93 10.23,-2.75 18.24,-14 13.21,-26.95 -4.55,-11.7 -16.3,-12.39 -30.58,-12.33 -30.38,0.12 -249.24,-1.58 -258.92,0.67z"/>
   <path class="fil2" d="M311.45 603.95c-12.62,2.91 -20.14,13.82 -14.67,28.16 4.29,11.26 16.89,11.44 31.36,11.38 43.49,-0.18 246.35,2.71 259.74,-0.93 16.3,-4.43 30.21,-39.47 -17.27,-39.29 -30.57,0.12 -249.26,-1.61 -259.16,0.68z"/>
   <path class="fil2" d="M311.55 503.64c-12.07,2.76 -20.59,12.26 -14.67,27.94 4.39,11.62 15.67,11.61 31.26,11.54 43.72,-0.18 246.19,2.77 259.8,-0.87 16.11,-4.31 30.31,-39.42 -17.32,-39.21 -30.22,0.13 -249.73,-1.54 -259.07,0.6z"/>
   <path class="fil2" d="M495.91 824.23l1.1 4.92c3.09,11.53 7.6,14.5 22.33,14.96 11.11,0.35 22.99,-0.05 34.19,-0.04 23.65,0 45.45,5.24 49.11,-19.7 -3.13,-26.63 -27.33,-20.45 -52.9,-20.45 -24.3,0 -51.36,-6.47 -53.83,20.31z"/>
   <path class="fil1" d="M636.05 21.76c4.04,26.93 26.89,19.15 53.53,20.07 29.74,-5.94 23.79,-37.17 2.28,-40.05 -6.56,-0.87 -31.5,-0.88 -38.05,0.01 -12.16,1.64 -16.03,7.73 -17.76,19.97z"/>
  </g>
 </g>
</svg>
